<svg xmlns="http://www.w3.org/2000/svg" width="206.316" height="70" viewBox="0 0 206.316 70">
  <g>
    <path fill="rgb(0,0,0)" fill-rule="evenodd" d="M12 0h182.31578947c6.6229803 0 12 5.3770197 12 12v46c0 6.6229803-5.3770197 12-12 12H12C5.3770197 70 0 64.6229803 0 58V12C0 5.3770197 5.3770197 0 12 0z"/>
    <path fill="rgb(255,255,255)" fill-rule="evenodd" d="M131.26428223 49.68188477c1.22009277-1.10009766 1.82788086-2.52539063 1.82788086-4.27685547 0-1.42358399-.41601563-2.61669922-1.24951172-3.56982422-.83666992-.95629883-2.13720703-1.7902832-3.90795899-2.50366211-1.44750976-.57104492-2.44494629-1.10009766-2.99389648-1.58911133-.63098145-.52929687-.9449463-1.20239258-.9449463-2.01635742 0-.73486328.27526856-1.35546875.82434083-1.86450195.64941406-.56933594 1.55566406-.8557129 2.71557617-.8557129 1.4675293 0 2.77893067.31567383 3.93884277.94702149l.82421875-2.68920899c-1.24182128-.65161132-2.79760742-.97802734-4.67028808-.97802734-2.10009766 0-3.77954102.54003906-5.03845215 1.62158203-1.26342773 1.08007813-1.89440918 2.46801758-1.89440918 4.16088867 0 2.59033204 1.8001709 4.5600586 5.40344238 5.90478516 1.32373047.49047852 2.27172852 1.02124024 2.8392334 1.59228516.57067871.57104492.85522461 1.27490234.85522461 2.1105957 0 .93774414-.34484863 1.68969727-1.03613281 2.24975586-.69433594.56030273-1.66088867.84179687-2.90270996.84179687-1.73046875 0-3.31872559-.43945312-4.76623535-1.31518554l-.76391602 2.74975586c1.34387207.85571289 3.1192627 1.28271484 5.33374024 1.28271484 2.39855957 0 4.26513671-.6003418 5.60595703-1.80273437zM79.9033203 51.1796875h-3.51208496l-1.92370605-6.04858398h-6.68688965l-1.83258057 6.04858398H62.5288086l6.625-20.59228516h4.09191895L79.9033203 51.1796875zm64.08984375-12.3725586h-3.63415527v7.20922852c0 1.8334961.64025879 2.74975586 1.92382812 2.74975586.5892334 0 1.07788086-.05126953 1.46447754-.15332031l.09118653 2.50512695c-.64941407.24291992-1.50463868.36523438-2.56396485.36523438-1.30212402 0-2.31970215-.39770508-3.05432129-1.19140625-.7314453-.79541016-1.0994873-2.1291504-1.0994873-4.00317383v-7.48461914h-2.16503906v-2.47558594h2.16503906v-2.71875l3.23828125-.97802734v3.69677734h3.63415527v2.47875977zm-70.10559082 3.78637696l-1.7397461-5.37719727c-.18408202-.5493164-.52893066-1.84277343-1.03771972-3.87915039h-.06188965c-.20251465.87573243-.52880859 2.1694336-.97729492 3.8791504l-1.7088623 5.37719726h5.5255127zm111.9650879.45947266c0 .59106445-.0386963 1.08935546-.12060548 1.49633789h-9.89123535c.0386963 1.46679687.51660156 2.58862304 1.43518067 3.36230468.83349609.69189454 1.91137695 1.03833008 3.23510742 1.03833008 1.4645996 0 2.80065918-.23364258 4.00231933-.70239258l.5164795 2.29003907c-1.4041748.61279296-3.06201172.91748046-4.97497559.91748046-2.30114746 0-4.10742187-.67773437-5.421875-2.03149414-1.31140137-1.3540039-1.96862793-3.17211914-1.96862793-5.453125 0-2.23901367.61083984-4.10351562 1.83410645-5.59057617 1.28051757-1.58764648 3.01098632-2.38134765 5.18835449-2.38134765 2.13879394 0 3.75793457.79370117 4.85742187 2.38134765.87072754 1.26123047 1.30834961 2.82080078 1.30834961 4.6730957zm-90.95800782 6.50683593c1.36401367-1.46533203 2.04589844-3.46142578 2.04589844-5.98657226 0-2.26074219-.58447266-4.08374024-1.75671387-5.4699707-1.16918945-1.38500977-2.63049316-2.07666016-4.38110352-2.07666016-2.2392578 0-3.90795898.88500976-5.00744628 2.65844726h-.06188965l-.18395996-2.35351562h-2.8996582c.08044433 1.67114258.12219238 3.3005371.12219238 4.88793945v16.01074219h3.29699707v-7.82202149h.06188964c.85522461 1.4050293 2.25939942 2.10766602 4.21411133 2.10766602 1.81091309 0 3.32800293-.65161133 4.54968262-1.95605469zm17.06677246 0c1.36547852-1.46533203 2.04748535-3.46142578 2.04748535-5.98657226 0-2.26074219-.58618164-4.08374024-1.7536621-5.4699707-1.17224122-1.38500977-2.633667-2.07666016-4.38269044-2.07666016-2.24084472 0-3.90942382.88500976-5.00744629 2.65844726h-.06188964l-.18395996-2.35351562h-2.8996582c.08044433 1.67114258.12219237 3.3005371.12219237 4.88793945v16.01074219h3.29699708v-7.82202149h.06188964c.8536377 1.4050293 2.2578125 2.10766602 4.21252442 2.10766602 1.81091308 0 3.32800293-.65161133 4.54821777-1.95605469zm58.10656738-10.41845703c.36499024 0 .71289063.03100586 1.03930664.0913086v-3.14575196c-.24438476-.03857422-.51965332-.06030273-.82434082-.06030273-.8552246 0-1.64855957.26464844-2.38305664.79541015-.75158691.58959961-1.3005371 1.37548829-1.64855957 2.35205079h-.09118652l-.12060547-2.84106446h-2.87182617c.08190918 1.4050293.12365723 2.96313477.12365723 4.67456055l-.0308838 10.17236328h3.29553223v-7.79101562c0-1.18066407.27526856-2.15844727.82421875-2.93212891.63098145-.8774414 1.5279541-1.31542969 2.68774414-1.31542969zm-11.63244629 10.1135254c1.30212403-1.46533204 1.95471192-3.33911134 1.95471192-5.62158204 0-2.22045898-.63098145-4.0324707-1.8959961-5.43579101-1.32214355-1.44677735-3.07434082-2.1694336-5.25170898-2.1694336-2.25939941 0-4.05639648.73339844-5.38793945 2.20043946-1.33459473 1.46533203-1.99951172 3.34985351-1.99951172 5.6508789 0 2.19873047.6463623 4.02319336 1.93920898 5.46850586 1.29284668 1.44506836 3.02648926 2.16772461 5.20385743 2.16772461 2.2593994 0 4.0718994-.75195313 5.43737792-2.26074219zm23.63293458-9.59350587c.44702148.71313477.6619873 1.55810547.64025878 2.53613282l-6.86779785-.00170899c.10046387-.99658203.42687989-1.85205078.97583008-2.56542969.66955566-.89746093 1.54638672-1.34472656 2.62426758-1.34472656 1.18005371 0 2.05688476.45800781 2.6274414 1.37573242zm-25.09899903 4.07885743c0-1.36938477-.2923584-2.54394532-.88464355-3.5234375-.69128418-1.18530274-1.67944336-1.7763672-2.95983887-1.7763672-1.32531738 0-2.33215332.5925293-3.0234375 1.7763672-.59228516.98095703-.88452148 2.17407226-.88452148 3.58520507 0 1.36938477.29223632 2.54394532.88452148 3.52197266.7130127 1.18530273 1.7088623 1.77636719 2.99401855 1.77636719 1.25878907 0 2.24694825-.60351563 2.95996094-1.80737305.60766602-.99804688.91394043-2.18481445.91394043-3.55273438zm-63.38781738-.04663086c0-1.44506836-.32470703-2.63671875-.97729492-3.5744629-.71289063-.9777832-1.67016602-1.46679687-2.87023926-1.46679687-.81347656 0-1.5526123.2722168-2.2130127.80932617-.66186523.5415039-1.09484863 1.2487793-1.29748535 2.12451172-.10205078.40844727-.15307617.74267578-.15307617 1.00585938v2.47558593c0 1.08007813.33093262 1.99145508.99279785 2.73583985.66186524.74438476 1.52172852 1.11572265 2.57946778 1.11572265 1.24182128 0 2.20837402-.47973632 2.8996582-1.43603515.6928711-.95776368 1.03918457-2.22045899 1.03918457-3.78955078zm17.0682373 0c0-1.44506836-.32629394-2.63671875-.97888183-3.5744629-.71289063-.9777832-1.66711426-1.46679687-2.86865235-1.46679687-.8149414 0-1.5526123.2722168-2.2145996.80932617-.66186524.5415039-1.09326172 1.2487793-1.29589844 2.12451172-.10046387.40844727-.15307617.74267578-.15307617 1.00585938v2.47558593c0 1.08007813.33093261 1.99145508.98974609 2.73583985.66186523.74267578 1.52172851 1.11572265 2.58251953 1.11572265 1.24182129 0 2.20837402-.47973632 2.8996582-1.43603515.6928711-.95776368 1.03918457-2.22045899 1.03918457-3.78955078z"/>
    <path fill="rgb(255,255,255)" fill-rule="evenodd" d="M105.2590332 12.57617188h1.61914063V23.2175293h-1.61914063V12.57617188zm26.77539063 10.64135742h1.43823242c-.03869629-.60058594-.05725098-1.25512696-.05725098-1.96533203v-8.6760254h-1.62219238v4.18725586h-.03100586c-.38964844-.66088867-1.07470703-.99047851-2.05371094-.99047851-.89074707 0-1.63916015.34057617-2.25 1.02124023-.63098144.73046875-.94494629 1.68676758-.94494629 2.86743164 0 1.10009766.28918457 1.99609375.86914063 2.6862793.57983398.6899414 1.31140137 1.03515625 2.18969727 1.03515625 1.09960937 0 1.88208007-.44580078 2.34143066-1.33691406h.0447998l.07580567 1.17138672zm41.87805176 0h1.62219238v-4.33740235c0-1.08007812-.27526856-1.89697265-.82421875-2.44628906-.4407959-.4411621-.99597168-.66088867-1.66711426-.66088867-.94799805 0-1.67944336.39941406-2.18981934 1.19921875h-.03088378v-4.3959961h-1.61914063v10.63964844h1.61914063v-4.38671875c0-.2290039.02783203-.42407226.07580566-.58325195.28137207-.75830078.7947998-1.13745117 1.54638672-1.13745117.9790039 0 1.46765137.65454101 1.46765137 1.9621582v4.14697266zM71.1611328 22.03222656c1.09020996-.92089844 1.6361084-2.29174804 1.6361084-4.1130371 0-1.62158204-.5057373-2.8671875-1.51403809-3.73828126-.9000244-.77075195-2.23461914-1.15600586-4.00524902-1.15600586-1.0020752 0-1.92999267.07128907-2.79138183.21044922v9.95117188c.66033935.08032226 1.44903564.12060547 2.37072753.12060547 1.85888672 0 3.29394532-.42553711 4.30383301-1.27490235zm95.79382324-4.89453125h-1.78466796v3.54345703c0 .90063477.3170166 1.35083008.94482421 1.35083008.29077149 0 .53198243-.0246582.72229004-.0756836l.04174805 1.23022462c-.32019043.12060547-.74072266.1809082-1.25878906.1809082-.6402588 0-1.13830567-.19506836-1.49853516-.58496094-.36193847-.38989258-.54125976-1.04589843-.54125976-1.96655273V17.1376953h-1.06555176v-1.2145996h1.06555176v-1.33691407l1.58813476-.47973633v1.8149414h1.78466797l.00158691 1.2163086zm-96.80371093-1.890625c.62475586.63110352.93725586 1.53637696.93725586 2.71704102 0 1.3215332-.34033203 2.32714844-1.01452637 3.01733398-.6743164.69018555-1.63146973 1.03515625-2.87182617 1.03515625-.53039551 0-.89538574-.01391601-1.09484864-.04467773v-7.56518555c.36035157-.07128906.79492188-.1052246 1.30517579-.1052246 1.20166015 0 2.11401367.31567382 2.73876953.94555663zm114.23388672 3.97802735c0 .29077148-.02160645.53540039-.06030274.73486328h-4.86047363c.02160644.7211914.25354004 1.27050781.70361328 1.65112304.41137695.34033204.94177246.5107422 1.5913086.5107422.7191162 0 1.37475585-.11450196 1.96557617-.34521485l.25354003 1.12646484c-.69128418.30029297-1.50463867.45043946-2.44641113.45043946-1.12902832 0-2.01818847-.33276368-2.66149902-.99804688-.64648438-.66552734-.96655274-1.5583496-.96655274-2.6784668 0-1.1003418.29846192-2.01635742.90002442-2.74658203.62792969-.7800293 1.4769287-1.16992187 2.54858398-1.16992187 1.04846192 0 1.8449707.38989257 2.38305664 1.16992187.43457032.61889649.64953614 1.38476563.64953614 2.29467774zm-83.59692383 3.9921875h1.62072754V18.8474121c0-1.07080078-.27990723-1.87695313-.83972168-2.41699219-.45007325-.44091797-1.01611328-.66064453-1.6965332-.66064453-.53820801 0-1.02990723.13769531-1.46911622.41015625-.3696289.23364258-.65112304.52612305-.83972168.8803711h-.0447998l-.07580567-1.14038087h-1.4243164c.03869629.75195313.05871582 1.44677735.05871582 2.08740235v5.2084961h1.62072754v-4.32666016c0-.47802735.15161133-.89575196.45007324-1.25024414.30151367-.35424805.68969727-.53076172 1.1706543-.53076172.98046875 0 1.4691162.64379883 1.4691162 1.93115234v4.17797852zm53.64050293 0h1.61914062V18.8474121c0-1.07080078-.27832031-1.87695313-.83972168-2.41699219-.45007324-.44091797-1.0159912-.66064453-1.69494629-.66064453-.53967285 0-1.02990722.13769531-1.47070312.41015625-.368042.23364258-.64953613.52612305-.83972168.8803711h-.0447998l-.07580567-1.14038087h-1.4227295c.0386963.75195313.05725098 1.44677735.05725098 2.08740235v5.2084961h1.62219239v-4.32666016c0-.47802735.15002441-.89575196.45007324-1.25024414.29992676-.35424805.68811035-.53076172 1.16906738-.53076172.98205567 0 1.47070313.64379883 1.47070313 1.93115234v4.17797852zm-72.57067871-3.7072754c0 1.12182618-.32019043 2.04101563-.96032715 2.7619629-.67114258.74121093-1.5604248 1.11108398-2.67077637 1.11108398-1.07019043 0-1.92224121-.35424805-2.55786133-1.0661621-.6340332-.71020509-.9510498-1.60620118-.9510498-2.6862793 0-1.12939454.32629394-2.05639649.98205566-2.77587891.65563965-.71948242 1.53710938-1.08007813 2.64746094-1.08007813 1.07019043 0 1.93005371.35424805 2.58105469 1.06469727.61853027.6899414.92944336 1.58129883.92944336 2.6706543zm33.60144043 2.7619629c.64013671-.72094727.96032714-1.64013672.96032714-2.7619629 0-1.08935546-.31091308-1.98071288-.92944335-2.6706543-.6525879-.71044921-1.51086426-1.06469726-2.58251954-1.06469726-1.10888671 0-1.99035644.3605957-2.64599609 1.08007813-.65576172.71948242-.98205566 1.64648437-.98205566 2.7758789 0 1.08007813.3170166 1.97607422.9510498 2.6862793.6340332.71191406 1.48620606 1.06616211 2.55786133 1.06616211 1.10876465 0 1.99963379-.36987305 2.67077637-1.11108398zm7.3486328.94555664h1.4552002c-.06958007-.43017578-.10510254-1.01049805-.10510254-1.73925782v-2.6862793c0-2.0114746-.95568847-3.01733398-2.8609619-3.01733398-.98657227 0-1.8232422.21044922-2.50061036.62988282l.3293457 1.06445312c.54748535-.35888672 1.18151856-.54003906 1.90063477-.54003906 1.0098877 0 1.51403808.47973633 1.51403808 1.44067383v.13623047c-1.35009765-.01098633-2.39855957.21972656-3.14404296.6899414-.74694825.47045899-1.118042 1.14990235-1.118042 2.04101563 0 .5895996.19018555 1.08642578.57067871 1.4855957.41906739.43945312.97583008.66064453 1.66394043.66064453.92175293 0 1.63146973-.33569336 2.1295166-1.00585937H122.6875l.12060547.84033203zm23.56506349-.94555664c.64013671-.72094727.96032714-1.64013672.96032714-2.7619629 0-1.08935546-.31091308-1.98071288-.92944336-2.6706543-.64953613-.71044921-1.51086425-1.06469726-2.57946777-1.06469726-1.11193848 0-1.9934082.3605957-2.64904785 1.08007813-.65576172.71948242-.98205566 1.64648437-.98205566 2.7758789 0 1.08007813.3170166 1.97607422.9510498 2.6862793.63720703.71191406 1.48925781 1.06616211 2.55786133 1.06616211 1.11193847 0 1.99963379-.36987305 2.67077637-1.11108398zM94.00683594 15.9230957l-2.28100586 7.29418946h-1.48461914l-.94482422-3.16723633c-.2397461-.79077149-.43457031-1.5769043-.58605957-2.35668946h-.02941895c-.14074707.80151368-.33557129 1.5859375-.58618164 2.35668946l-1.00354004 3.16723633h-1.50170898l-2.14489746-7.29418946h1.66552734l.82421875 3.46777344c.19958496.82006836.3635254 1.60131836.49487305 2.34106445h.02941894c.12060547-.60961914.32006836-1.3864746.6015625-2.32568359l1.0345459-3.48168945h1.32067871l.99133301 3.4074707c.2397461.83081055.43457031 1.63085938.58459473 2.40136719h.0447998c.10986328-.75048828.27526856-1.55029297.49487305-2.40136719l.88452148-3.4074707 1.5913086-.00146485zm88.51782226 1.63720703c.2196045.34960938.32629395.7644043.31396485 1.24560547h-3.37438965c.0526123-.49047851.21191406-.9099121.48095703-1.26123047.3293457-.44091796.76086426-.66064453 1.28979492-.66064453.57983399 0 1.00817871.22583008 1.28967285.67626953zm-102.78222656.27075196c.28918457.48120117.43457031 1.0583496.43457031 1.73144531q0 1.00976563-.45007324 1.74536133c-.3494873.59277344-.835083.8881836-1.45361328.8881836-.63098145 0-1.1196289-.2907715-1.47070313-.8725586-.28918457-.48144531-.4345703-1.05859375-.4345703-1.73168946 0-.69311523.14379882-1.27954101.4345703-1.76074218.34020997-.58178711.83508301-.87280274 1.48608399-.87280274.6295166 0 1.11352539.29101563 1.45373535.87280274zM114.73718262 19.5625c0-.6730957-.14538575-1.25024414-.43457032-1.73144531-.33862304-.58178711-.82421875-.87280274-1.45214843-.87280274-.6525879 0-1.14746094.29101563-1.48608399.87280274-.29077148.48120117-.43457031 1.06762695-.43457031 1.76074219 0 .6730957.14538574 1.25024414.43457031 1.73168945.35107422.5817871.83972168.8725586 1.47070313.8725586.61853027 0 1.10253906-.29541016 1.45214844-.8881836.30151367-.49047852.44995117-1.07226563.44995117-1.74536133zm30.91674804 0c0-.6730957-.14526367-1.25024414-.43444824-1.73144531-.34179687-.58178711-.82434082-.87280274-1.45532226-.87280274-.64941407 0-1.14428711.29101563-1.48608399.87280274-.29077148.48120117-.43457031 1.06762695-.43457031 1.76074219 0 .6730957.14538574 1.25024414.43457031 1.73168945.35107422.5817871.83972168.8725586 1.47070313.8725586.61853027 0 1.10571289-.29541016 1.4552002-.8881836.2984619-.49047852.44995116-1.07226563.44995116-1.74536133zm-13.86071777.57885742v-1.2163086c0-.21044921-.01550293-.38061523-.04492187-.51049804-.09118653-.39013672-.28759766-.71801758-.58605957-.98266601-.30163575-.26464844-.66503907-.39770508-1.08410645-.39770508-.60461426 0-1.07788086.2397461-1.42578125.7211914-.34484863.48120118-.51965332 1.09545899-.51965332 1.84594727 0 .72094726.16552734 1.3059082.4979248 1.75610351.35107422.47973633.82434082.71972657 1.41662598.71972657.53198242 0 .9572754-.19970703 1.2803955-.60058594.31237794-.3696289.46557618-.81542969.46557618-1.33520508zm-9.21240234.5690918v-1.12475586c-1.78771973-.03100586-2.68151856.45947266-2.68151856 1.4699707 0 .38061524.10205078.6652832.31079102.8557129.2088623.19018554.47485351.28466796.79187011.28466796.35559083 0 .68811036-.1130371.99121094-.33740234.3046875-.22583008.4918213-.51220703.56140137-.86328125.01696777-.07910156.02624512-.17504883.02624512-.28491211z"/>
    <path fill="rgb(255,255,255)" fill-rule="evenodd" d="M40.1416626 12.52636719c.25891113 2.35351562-.6737671 4.67285156-2.03692627 6.3774414-1.42242432 1.67822266-3.69793701 2.96191407-5.9142456 2.79638672-.2901001-2.2644043.83288573-4.67260742 2.08996581-6.1418457 1.4208374-1.66723633 3.88824463-2.94458008 5.86120606-3.03198242zm7.2602539 13.57373047c-.24951171.14892578-4.35113525 2.59521484-4.30621338 7.58618164.05145264 6.02490234 5.27008057 8.01660156 5.33404542 8.03833007-.03118897.14038086-.81726075 2.87451172-2.7746582 5.65087891-1.6345215 2.44384766-3.3470459 4.83325195-6.06707764 4.87695313-1.29315186.02978515-2.1663208-.34204102-3.07617188-.7294922-.94915771-.40429687-1.93817139-.82543944-3.48535156-.82543944-3.05853272 0-4.00524903 1.51123046-6.53967285 1.61572265-2.59057618.09521485-4.56982422-2.609375-6.26361084-5.03149414-3.38604737-4.94555664-6.02185059-13.93701172-2.4876709-20.05566406 1.71252441-3.00073242 4.83496094-4.93310547 8.17266845-4.98461914 1.46972657-.0300293 2.8793335.53637695 4.11511231 1.03295898.94500732.37963867 1.78839111.71850586 2.47912598.71850586.60668945 0 1.42626953-.32519531 2.3815918-.7043457 1.50549316-.59765625 3.34796142-1.32885742 5.22491454-1.13134766 1.28356934.03735352 4.93634034.50683594 7.29296875 3.9428711z"/>
  </g>
</svg>
