<svg xmlns="http://www.w3.org/2000/svg" width="206.316" height="70" viewBox="0 0 206.316 70">
  <defs>
    <linearGradient id="linearGradient-3" x1="24.056" x2="24.056" y1="28.559" y2="60.155" gradientUnits="userSpaceOnUse">
      <stop offset="0" stop-color="rgb(30,121,175)"/>
      <stop offset="1" stop-color="rgb(99,255,211)"/>
    </linearGradient>
    <linearGradient id="linearGradient-5" x1="34.139" x2="17.765" y1="46.638" y2="59.678" gradientUnits="userSpaceOnUse">
      <stop offset="0" stop-color="rgb(220,64,87)"/>
      <stop offset="1" stop-color="rgb(158,54,187)"/>
    </linearGradient>
    <linearGradient id="linearGradient-7" x1="38.584" x2="38.584" y1="39.396" y2="49.096" gradientUnits="userSpaceOnUse">
      <stop offset="0" stop-color="rgb(255,150,118)"/>
      <stop offset="1" stop-color="rgb(255,208,116)"/>
    </linearGradient>
    <linearGradient id="linearGradient-9" x1="20.295" x2="37.265" y1="28.498" y2="44.341" gradientUnits="userSpaceOnUse">
      <stop offset="0" stop-color="rgb(81,198,173)"/>
      <stop offset="1" stop-color="rgb(213,255,161)"/>
    </linearGradient>
  </defs>
  <g>
    <path fill="rgb(0,0,0)" fill-rule="evenodd" d="M12 0h182.31578947c6.6229803 0 12 5.3770197 12 12v46c0 6.6229803-5.3770197 12-12 12H12C5.3770197 70 0 64.6229803 0 58V12C0 5.3770197 5.3770197 0 12 0z"/>
    <g>
      <path fill="url(#linearGradient-3)" fill-rule="evenodd" d="M16.70831201 28.55869581c-.58124737.18334083-.95740129.77671484-.95740129 1.6744527l.00358242 28.25435709c0 .88780312.36451106 1.47214557.92963755 1.66722744L32.3616887 44.34407023 16.708312 28.5586958"/>
      <path fill="url(#linearGradient-5)" fill-rule="evenodd" d="M16.68413069 60.15473304c.40660447.13908614.91620347.07405885 1.4714783-.23301446l19.13190486-10.610286-4.92582514-4.96736235-15.67755802 15.8106628"/>
      <path fill="url(#linearGradient-7)" fill-rule="evenodd" d="M37.29020066 49.31143259l6.5235837-3.61714296c1.32280795-.73607278 1.32280795-1.93365869 0-2.66792516l-6.54776502-3.6306903-4.90433063 4.94568659 4.92851195 4.97007183"/>
      <path fill="url(#linearGradient-9)" fill-rule="evenodd" d="M37.26512374 39.39567416L18.155609 28.79983867c-.54184077-.2989449-1.04158812-.36848797-1.44640138-.24114286L32.3616887 44.34136076l4.90343503-4.9456866"/>
    </g>
    <path fill="rgb(255,255,255)" fill-rule="evenodd" d="M125.08362459 51.09887695c-.99328613-.09301757-1.20288086-.27734375-1.20288086-1.46142578l.00720215-17.28540039c.11999512-1.06665039.40026855-1.39990234 1.3371582-1.94726562h-4.32226562l-2.26403809 1.10009765h2.35180664l.01171875 18.12084961v.68017578c0 .60864258-.11999512.69995118-.81860351 1.61376953h5.32617187l1.11767578-.67089843c-.51049805-.06152344-1.02636719-.08862305-1.54394531-.14990235zm-53.5769043.15698243l-4.05175781.93554687c-1.64160156.26098633-3.11572266.49047852-4.67675781.49047852-7.81506348 0-10.79296875-5.8010254-10.79296875-10.34106446 0-5.5444336 4.21923828-10.68530273 11.44494629-10.68530273 1.52880859 0 2.99938964.22680664 4.3392334.59521484 2.12341308.6015625 3.11669921 1.34301758 3.73730468 1.77734375l-2.3536377 2.25439453-.99230956.22387696.70751953-1.1369629c-.95825196-.94384765-2.7199707-2.68603515-6.06323242-2.68603515-4.4699707 0-7.84191895 3.42651367-7.84191895 8.42919922 0 5.37280273 3.85021973 10.42675781 10.02539063 10.42675781 1.81445312 0 2.74865722-.36743164 3.59667968-.71069336v-4.60620117l-4.27819824.23217773 2.26757813-1.22827148h6.00415039l-.734375.71264648c-.19787598.16967774-.22485352.22753907-.28027344.45507813-.02954102.2602539-.05737305 1.08740234-.05737305 1.37841797v3.48339843zm89.3026123-18.69702149h1.5279541v19.75292969h-1.5279541V32.55883789zm13.98132325 18.41259766c.05639648.36499023.13342285.80200195.23547363 1.29785156h1.76171875c-.13708496-.46142578-.2401123-.93847656-.30456543-1.41601563-.06262207-.47705078-.08691406-.96655273-.08691406-1.47314453v-7.05371093c0-1.51000977-.50952148-2.6652832-1.52514648-3.46435547-1.0164795-.8076172-2.36535645-1.2121582-4.03198243-1.2121582-1.67211914 0-3.03076172.41088867-4.0678711 1.22827148-1.04162597.81835937-1.53149413 1.765625-1.47509765 2.84594726l.03222657.07666016h1.56469726c0-.8010254.35546875-1.46582031 1.0612793-2.00219727.71203613-.52563476 1.64697265-.7956543 2.79968262-.7956543 1.26098632 0 2.23364257.29516602 2.9267578.87963868.69055177.5834961 1.0362549 1.3881836 1.0362549 2.41137695v1.77661133h-3.5654297c-1.9111328 0-3.4552002.3972168-4.64990234 1.1965332-1.19482422.7956543-1.79394531 1.83618164-1.79394531 3.11767579 0 1.28344726.41381836 2.29760742 1.23596191 3.04638671.8248291.74975586 1.9810791 1.11914063 3.47045899 1.11914063 1.2368164 0 2.13867187-.2512207 3.0880127-.7631836.94848632-.50854492 1.69091796-1.15429687 2.21484374-1.93017578 0 .37841797.02685547.75048829.07348633 1.11450196zm-27.3428955-.96801758v7.76245117h-1.5288086V38.01293945h1.5288086v2.24975586c.9958496-1.45410156 2.81579589-2.60644531 4.92944335-2.60644531 3.79101563 0 6.34436035 2.90014648 6.34436035 7.49072266 0 4.56005859-2.55334472 7.52075195-6.34436035 7.52075195-1.9954834 0-3.78308105-1.0378418-4.92944336-2.66430664zm-66.64904786 2.3100586c-4.80493164 0-7.37084961-3.77246094-7.37084961-7.18798829 0-3.99121094 3.23217773-7.40600586 7.82666016-7.40600586 4.44042968 0 7.22033691 3.5078125 7.22033691 7.19091797 0 3.59741211-2.7467041 7.40307617-7.67614746 7.40307617zm16.08410644 0c-4.80395507 0-7.37438964-3.77246094-7.37438964-7.18798829 0-3.99121094 3.23132324-7.40600586 7.82763672-7.40600586 4.44299316 0 7.225708 3.5078125 7.225708 7.19091797 0 3.59741211-2.7503662 7.40307617-7.67895508 7.40307617zm41.85351563-2.44018555l-1.44555664 1.37548828c-.33410645.1850586-.66638184.40014648-.99768066.55273437-1.00402833.4597168-2.02502442.57519531-2.93225098.57519531-.9654541 0-2.4790039-.06323242-4.0230713-1.18945312-2.14489745-1.5234375-3.0826416-4.14257813-3.0826416-6.42504883 0-4.7253418 3.81433106-7.0427246 6.92565919-7.0427246 1.08728027 0 2.20410156.2746582 3.11230469.85351562 1.51000976 1.00708007 1.90039062 2.31567382 2.1171875 3.01660156l-7.1048584 2.89453125-2.32678223.18237305c.75317383 3.87451171 3.35229492 6.12792968 6.2244873 6.12792968 1.43469239 0 2.4996338-.4724121 3.47668458-.95898437 0 0 .19616699-.10302735.05651855.0378418zm41.99389648 6.85302734c-.35375976 0-.91174316-.09033203-1.23864746-.23754883l-.26245117 1.42260742c.3815918.11816407 1.03356934.20678711 1.5279541.20678711 1.64697266 0 2.8461914-.86425781 3.60839844-2.6616211l7.34484863-17.4436035h-1.72937011l-5.11572266 12.49438476-5.16589355-12.49438477h-1.7052002l6.02209473 14.41796875-1.1151123 2.54785157c-.58483888 1.36206054-1.23583985 1.74755859-2.17089845 1.74755859zm-65.10949707-17.51123047c.6940918.57543945 2.14221192 1.79638672 2.14221192 4.11206055 0 2.25708008-1.26184082 3.32104492-2.5345459 4.32788086-.39038086.39648437-.84716797.82641601-.84716797 1.49121093 0 .67456055.45678711 1.04052735.7854004 1.31323243l1.09179687.84985351c1.3272705 1.12988281 2.53723144 2.16577149 2.53723144 4.27001953 0 2.86669922-2.75134277 5.7578125-7.95031738 5.7578125-4.3795166 0-6.4967041-2.10351562-6.4967041-4.35864257 0-1.09741211.54187011-2.65185547 2.32946777-3.71655274 1.87365723-1.15527344 4.41174316-1.30957031 5.77124024-1.39990234-.42443848-.55273438-.90905762-1.1315918-.90905762-2.07641602 0-.51660156.15405273-.82446289.30273437-1.1875-.33044433.03149414-.66357422.06396485-.9663086.06396485-3.20544433 0-5.0172119-2.41137696-5.0172119-4.78759766 0-1.40161133.63415527-2.95703125 1.9362793-4.08398438 1.72314452-1.43066406 3.77770995-1.67724609 5.41040038-1.67724609h6.22802735l-1.9362793 1.10180664h-1.87719727zM85.485358 46.46826172c0 1.18676758-.1809082 2.40429687-.90637207 3.37963867-.69763184.97363281-1.90222168 1.55078125-3.08166504 1.55078125-3.65686035 0-5.13903809-4.96655273-5.13903809-7.97753906 0-1.31518555.20959473-2.65527344 1.39172363-3.72192383.72546387-.64135742 1.71875-1.03417969 2.71911622-1.03417969 3.74450683 0 5.01623535 5.11914063 5.01623535 7.80322266zm16.085083 0c0 1.18676758-.17736816 2.40429687-.90820312 3.37963867-.69580078.97363281-1.90222168 1.55078125-3.08435059 1.55078125-3.66308593 0-5.13903808-4.96655273-5.13903808-7.97753906 0-1.31518555.21044922-2.65527344 1.39086914-3.72192383.72363281-.64135742 1.72766113-1.03417969 2.7244873-1.03417969 3.74804688 0 5.01623536 5.11914063 5.01623536 7.80322266zm33.7562256-5.11987305c0 .4243164-.30004884.6069336-.87683106.81811524l-5.50170899 2.40795898c-.0303955-.54736328-.0913086-1.09472656-.0913086-1.60864258 0-3.29296875 2.26672364-4.24121093 3.47399903-4.24121093 1.63000488 0 2.99584961 1.40625 2.99584961 2.6237793zm16.79260253-2.3005371c3.17126465 0 4.95983887 2.638916 4.95983887 6.09912109 0 3.46533203-1.78857422 6.12695312-4.95983887 6.12695312-1.96948242 0-3.85290527-1.61767578-4.67150879-2.98144531v-6.32299805c.81860352-1.36108398 2.70202637-2.92163086 4.67150879-2.92163086zm-37.77124023 7.90625c.69848632-.70336915.75939941-1.67529298.75939941-2.22705079 0-2.19213867-1.29589844-5.60595703-3.80810547-5.60595703-.7836914 0-1.63269043.39648438-2.11450195 1.00976563-.51135254.63476562-.66455078 1.45849609-.66455078 2.25073242 0 2.04101562 1.18041992 5.42602539 3.7767334 5.42602539.75769042 0 1.5727539-.37109375 2.05102539-.85351563zm55.25341796 4.19165038c1.29858399 0 2.23181153-.2927246 3.18566895-.87158203.94750977-.57519531 1.59240723-1.32592773 1.93005371-2.234375v-2.74560547h-3.58239746c-1.36853027 0-2.50146484.30517578-3.39257813.92114258-.89294433.61425781-1.34521484 1.35742188-1.34521484 2.22192383 0 .81542969.2866211 1.4675293.85620117 1.96166992.57141114.49926758 1.352417.74682617 2.3482666.74682617zm-56.81811523 1.56689453c.29919434 0 .44787598 0 .69592285.0324707 2.29272461 1.64819337 3.28955078 2.46826173 3.28955078 4.02270509 0 1.88842773-1.54040527 3.29101562-4.44213867 3.29101562-3.22961426 0-5.31726074-1.55786133-5.31726074-3.71826172 0-2.16479492 1.93359375-2.89355469 2.60266113-3.14013672 1.26452637-.42822265 2.8972168-.48779297 3.17126465-.48779297z"/>
    <path fill="rgb(255,255,255)" fill-rule="evenodd" d="M56.98499178 11.23144531c-2.8347168 0-5.11364746 1.97314453-5.11364746 5.04052735 0 3.05395507 2.27893066 5.05444336 5.11364746 5.05444336 1.68017578 0 3.053833-.71557618 4.00292968-1.7824707v-3.63793946h-4.61621093v1.50512695h2.92138672v1.50488281c-.43811036.42358399-1.31420899.8762207-2.30810547.8762207-1.92749024 0-3.36047364-1.4904785-3.36047364-3.52026366 0-2.05981446 1.4329834-3.52001953 3.36047364-3.52001953 1.0805664 0 2.00146484.56860351 2.52722168 1.29956054l1.38806152-.80395508c-.77478027-1.10986328-2.01599121-2.01611328-3.9152832-2.01611328zm49.75109863 0c-2.92321777 0-4.98217774 2.1328125-4.98217774 5.04052735 0 2.90698242 2.05895997 5.03979492 4.98217774 5.03979492 2.90600586 0 4.98132324-2.1328125 4.98132324-5.03979492 0-2.90771485-2.07531738-5.04052735-4.98132324-5.04052735zm-43.63439941.16064453v9.74462891h6.67614746V19.6315918h-4.96765137v-2.71704102h4.86547851v-1.50488281H64.8101871v-2.51171875h4.96765137v-1.50585938H63.101691zm11.40551757 9.74462891v-8.23876953h-2.9506836v-1.50585938h7.61071778v1.50585938h-2.9506836v8.23876953h-1.70935058zm12.30908203-9.7446289h-1.70849609v9.7446289h1.7084961v-9.7446289zm4.76049805 9.7446289v-8.23876953h-2.9506836v-1.50585938h7.61071778v1.50585938h-2.9506836v8.23876953h-1.70935058zm23.84509277-6.96826172l5.08447266 6.96826172h1.65100098v-9.7446289h-1.70947266v6.75l-4.98132324-6.75h-1.75317383v9.7446289h1.7084961v-6.96826172zm-5.4576416 2.10375977c0-2.01611328-1.2713623-3.52026367-3.22814941-3.52026367-1.97314453 0-3.2290039 1.50415039-3.2290039 3.52026367 0 2.00048828 1.25585937 3.52001953 3.2290039 3.52001953 1.9567871 0 3.22814941-1.51953125 3.22814941-3.52001953z"/>
  </g>
</svg>
