<svg width="16" height="12" viewBox="0 0 16 12" fill="none" xmlns="http://www.w3.org/2000/svg">
<path fill-rule="evenodd" clip-rule="evenodd" d="M0 2C0 1.46957 0.21071 0.96086 0.58579 0.58579C0.96086 0.21071 1.46957 0 2 0H6L8 2H12C12.5304 2 13.0391 2.21071 13.4142 2.58579C13.7893 2.96086 14 3.46957 14 4V5H6C5.20435 5 4.44129 5.31607 3.87868 5.87868C3.31607 6.4413 3 7.2044 3 8V9.5C3 9.8978 2.84196 10.2794 2.56066 10.5607C2.27936 10.842 1.89782 11 1.5 11C1.10218 11 0.72064 10.842 0.43934 10.5607C0.15804 10.2794 0 9.8978 0 9.5V2Z" fill="black"/>
<path d="M4 8C4 7.4696 4.21071 6.9609 4.58579 6.5858C4.96086 6.2107 5.46957 6 6 6H14C14.5304 6 15.0391 6.2107 15.4142 6.5858C15.7893 6.9609 16 7.4696 16 8V10C16 10.5304 15.7893 11.0391 15.4142 11.4142C15.0391 11.7893 14.5304 12 14 12H0H2C2.53043 12 3.03914 11.7893 3.41421 11.4142C3.78929 11.0391 4 10.5304 4 10V8Z" fill="black"/>
</svg>
