<svg xmlns="http://www.w3.org/2000/svg" xmlns:xlink="http://www.w3.org/1999/xlink" width="118.771" height="140" viewBox="0 0 118.771 140">
  <defs>
    <path id="path-1" fill-rule="evenodd" d="M0 21.22877093h118.77106478V140H0V21.22877093z"/>
    <mask id="mask-2" maskContentUnits="userSpaceOnUse" maskUnits="userSpaceOnUse">
      <rect width="118.771" height="140" x="0" y="0" fill="black"/>
      <use fill="white" xlink:href="#path-1"/>
    </mask>
  </defs>
  <g>
    <g>
      <use fill="none" xlink:href="#path-1"/>
      <g mask="url(#mask-2)">
        <path fill="rgb(223,156,0)" fill-rule="evenodd" d="M118.77106478 80.61442067c0 32.79770148-26.58794826 59.38564974-59.38564974 59.38564974S0 113.41212215 0 80.61442067s26.58771356-59.38564974 59.38541504-59.38564974 59.38564974 26.58794826 59.38564974 59.38564974"/>
      </g>
    </g>
    <path fill="rgb(255,255,255)" fill-rule="evenodd" d="M79.3812561 136.53955078C73.13183594 138.77441406 66.40293884 140 59.38537598 140c-7.01733399 0-13.74645996-1.22558594-19.99565125-3.46044922v-4.9633789c0-2.7631836-1.37130737-3.29052735-2.56637573-3.4404297-.7888031-.09960937-1.48043823-.50146484-1.94747925-1.13183593-.1767273-.23876953-.42738342-.5102539-.74421692-.80908203-.32058716-.30273438-.42243957-.76123047-.25979614-1.16992188.16262817-.40966796.5526886-.6743164.99368286-.6743164h4.52418518v-4.18603516h-.73318481c-.73153687 0-1.32647705-.59472656-1.32647705-1.32617187v-.87695313c0-.73144531.59494018-1.32617187 1.32647705-1.32617187h2.48071289v-2.88232422c0-.73144532.5947113-1.32617188 1.32624817-1.32617188h2.28146362V76.81591797l-1.29504395-.7163086c-.39639282-.1796875-.58673095-.72265624-.73928833-1.15820312-.01924133-.05371094-.03495788-.10205078-.04928588-.13867188-.9359436-.21289062-2.12490845-.85253906-2.12490845-2.24609374 0-.55859376.20254516-1.04492188.58580017-1.40576172.82611084-.77832032 2.21221924-.71777344 2.36875915-.70751954l1.3980713-.00097656c.201828-1.36914062 1.19857787-3.1069336 4.95555114-3.1069336 1.82121277 0 3.38357544-1.61376952 4.15312195-2.5751953.80688476-1.00976563 1.03945923-1.50488282-1.33773804-3.6748047-1.63652038-1.4946289-1.40957641-3.38330077-.57008362-4.8203125-2.7266693-2.20068359-4.33807373-5.54492187-4.33807373-9.0595703 0-5.55712891 4.01280213-10.37548829 9.41801453-11.42138672v-3.04394532c-1.54450989-.81591796-2.52130127-2.41796875-2.52130127-4.18847656 0-2.13574219 1.41191101-3.97216797 3.42323303-4.54833984v-6.08789063c-1.29199218-.42480468-2.31806946-1.46435547-2.7259674-2.7626953h-6.49232483v-2.52734376h6.49232483c.40789794-1.29882812 1.43397522-2.3383789 2.7259674-2.7631836V0h2.62739563v9.86230469c1.29199219.42480468 2.31806946 1.46435547 2.72596741 2.7631836h6.49232483v2.52734374h-6.49232483c-.40789795 1.29833984-1.43397522 2.33789063-2.7259674 2.76269531v6.08789063c2.01132201.57617187 3.42323302 2.41259765 3.42323302 4.54833984 0 1.77050781-.97679138 3.3725586-2.52131652 4.18847656v3.04394532c5.40522766 1.04589843 9.41801452 5.86425781 9.41801452 11.42138672 0 3.51464843-1.61140442 6.85888671-4.33807373 9.0595703.83926392 1.43701173 1.06645203 3.3256836-.57006836 4.8203125-2.37721252 2.16992188-2.1446228 2.66503907-1.3377533 3.67382813.76956177.96240235 2.33190919 2.57617188 4.15313721 2.57617188 3.75697327 0 4.75372315 1.73779297 4.95555115 3.10644531h1.37695313c.31565857-.05664062 1.45954895-.20654297 2.25492859.43457031.32904052.26513672.7207489.7709961.7207489 1.68017579 0 .9868164-.39710999 1.53320312-.73036194 1.81787109-.4689331.4008789-1.0352478.5-1.42529297.51367187l-.01855469.05322266c-.15254211.43554688-.34288025.97851563-.78105163 1.17919922l-1.25326538.6953125v35.61083984h2.28144836c.73153686 0 1.32626343.59472657 1.32626343 1.32617188v2.88232422h2.48071289c.73153686 0 1.32647705.59472656 1.32647705 1.32617187v.87695313c0 .7314453-.59494019 1.32617187-1.32647705 1.32617187h-.73318482v4.18603516h4.52418518c.440979 0 .83081055.26464843.99368287.6743164.16264343.40869141.06079101.8671875-.25909424 1.16894532-.31755066.29980468-.56843567.57128906-.74491883.81005859-.46704101.6303711-1.1586914 1.03222656-1.94747924 1.13183594-1.19506836.14990234-2.56637574.6772461-2.56637574 3.44042968v4.96337891zM52.59310913 86.0756836c0-1.4711914 1.0279541-2.66796875 2.29107666-2.66796875 1.26287842 0 2.29107666 1.19677735 2.29107666 2.66796875v26.19384766h-4.58215332V86.07568359zm9.002594 0c0-1.4711914 1.02819824-2.66796875 2.29107666-2.66796875 1.26312255 0 2.29107666 1.19677735 2.29107666 2.66796875v26.19384766h-4.58215332V86.07568359z"/>
  </g>
</svg>
