<svg width="16" height="12" viewBox="0 0 16 12" fill="none" xmlns="http://www.w3.org/2000/svg">
<path d="M0.00299072 1.884L7.99999 5.882L15.997 1.884C15.9674 1.37444 15.7441 0.89549 15.3728 0.54523C15.0015 0.19497 14.5104 -8.99689e-05 14 3.11304e-08H1.99999C1.48958 -8.99689e-05 0.998441 0.19497 0.627171 0.54523C0.255901 0.89549 0.0325907 1.37444 0.00299072 1.884Z" fill="black"/>
<path d="M16 4.11798L8 8.118L0 4.11798V10C0 10.5304 0.21071 11.0391 0.58579 11.4142C0.96086 11.7893 1.46957 12 2 12H14C14.5304 12 15.0391 11.7893 15.4142 11.4142C15.7893 11.0391 16 10.5304 16 10V4.11798Z" fill="black"/>
</svg>
