<svg xmlns="http://www.w3.org/2000/svg" xmlns:xlink="http://www.w3.org/1999/xlink" width="300" height="85.658" viewBox="0 0 300 85.658">
  <defs>
    <path id="path-29" fill-rule="evenodd" d="M0 12.98864736h72.66909055v72.66919107H0V12.98864736z"/>
    <mask id="mask-30" maskContentUnits="userSpaceOnUse" maskUnits="userSpaceOnUse">
      <rect width="300" height="85.658" x="0" y="0" fill="black"/>
      <use fill="white" xlink:href="#path-29"/>
    </mask>
  </defs>
  <g>
    <path fill="rgb(30,30,28)" fill-rule="evenodd" d="M123.06054549 52.22103038c0-.0873059-.00832852-.19370995-.0272831-.34965436-.02886263-.22285979-.10281417-.42518546-.21970068-.6010896-.14603634-.2194135-.4027846-.33773597-.66484588-.30729378-.46639728.05542776-.92690716.0903214-1.36989842.10396294-.44457081.01435952-.94758487.0212521-1.53761764.0212521-1.19112237 0-2.39904538-.04307857-3.59031135-.12823054-.28173382-.01852378-.54882094.13182041-.67532833.3848352-.1352667.2705334-.20390521.56533439-.20390521.87621804 0 .50344485.28115944.92389166.76895241 1.15220807.2736925.1293793.57639123.24411187.89933688.34089505.24253233.07280278.4688384.16427294.67159485.27110778-.00502583.44859148-.11975841 1.06533296-.34060786 1.833711-.2402348.83285228-.55485194 1.76205696-.93523569 2.7619105-.37937857.9976996-.80729234 2.07839725-1.27153569 3.21121995-.22917797.55844182-.45333012 1.1150169-.67102047 1.66642256l-5.05455183-12.36886166c-.07739782-.18897132-.23334223-.33486406-.42733938-.39919472-.25473792-.08457759-.44299126-.12219954-.6101361-.12219954-.25186602 0-.87076143.09132656-1.17317296.9257584l-4.55986629 11.89399226-2.67302506-6.69972228c-.7425309-1.88698482-.92992266-2.5908886-.97644751-2.83801598.1293793-.0778286.48334151-.23549616 1.36200068-.37105005.71768892-.06677178 1.17977835-.55786744 1.17977835-1.25818134 0-.0873059-.00832853-.19370995-.02757029-.35037234-.02886264-.222429-.10267058-.42432388-.2191263-.59965365-.13641547-.20577195-.37018849-.32352003-.61789025-.31188882-.52857401.02656511-1.04465524.05327383-1.54810009.07940816l-.14388241.00732335c-.5290048.02814467-1.11429893.0423606-1.73965612.0423606h-1.47314339c-.7060577 0-1.38612468-.00717977-2.02196432-.0213957-.6460349-.01378514-1.25430427-.04910956-1.80786385-.1051117-.28963156-.02943702-.56605237.1233483-.69586245.38311206-.1352667.2705334-.20390521.56533439-.20390521.87621804 0 .67403598.41341064 1.17188061 1.10568321 1.3314149.0061746.00143596.01249278.0028719.01881097.00416426.27742597.05585855.51880954.11099911.7152478.16326777.10870159.02914983.1987358.07696704.27283093.14388241.07064885.06461786.18265312.19169963.31519151.42963691.13038446.23520897.27814395.55844182.44141171.96668304l5.59231594 13.6121091c.23492178.5588726.45117619 1.04379367.64273221 1.44040367.41053874.8538172 1.0462348.98118615 1.3885658.98118615.2497121 0 .53546659-.03259611.87348974-.10008587.2342038-.04666844.42834455-.20950543.51507606-.43207802l4.47959656-11.50312607 4.18393399 10.16079793c.38354284.98075537.5771092 1.27096131.71682735 1.42661854.18408907.204336.51766077.4478735 1.06131229.4478735.28589808 0 .57610403-.0360424.8622893-.10726564.22056227-.05499697.40063068-.21366969.48305433-.42561624l6.02080408-15.50684805c.16499091-.41269267.31016568-.74468483.43121645-.98707356.08572635-.1714527.17920684-.3004012.27627721-.38138891.10740923-.08931623.22501371-.15450846.35812648-.19902298.17891965-.05930483.40651808-.11487618.67676429-.1651345.71079635-.07194121 1.16757275-.57825797 1.16757275-1.30039834"/>
    <path fill="rgb(30,30,28)" fill-rule="evenodd" d="M137.6034851 65.54986572c.42001344-.42002868.85310365-.50804138 1.1425934-.50804138.5659027 0 1.05010985.37319946 1.43896483 1.10926819.12420655.23521423.10440064.52067566-.05154418.73635864-.3961792.5482483-.85784913 1.0871582-1.37234498 1.60165405-.5318756.53173829-1.17144775 1.01393128-1.901062 1.43338013-.73031617.4194336-1.5669098.75616455-2.48692322 1.00114441-.92173768.24568176-1.98822022.37017822-3.17001343.37017822-1.23017884 0-2.41799927-.20347595-3.53056336-.60467529-1.13024902-.40766907-2.14100647-1.04421997-3.0044403-1.8924408-.85827637-.84190368-1.55241394-1.89703369-2.06332398-3.1356964-.50933838-1.23461915-.767807-2.69499207-.767807-4.33987427 0-1.56648255.30528259-3.03416443.90751647-4.36213685.59649659-1.31504821 1.38195801-2.4571991 2.33457947-3.39486694.94902039-.93380737 2.01550293-1.67289734 3.16999817-2.19673157 1.17045593-.5302887 2.32467651-.79910278 3.43078613-.79910278 2.89889527 0 5.05929566.87693787 6.42129517 2.60668945 1.32150268 1.6797638 1.99151611 3.88093567 1.99151611 6.54277039 0 .5493927-.39416504.95002747-.9401245.95921326l-11.82276917.53201294c.0498352.79624939.18983459 1.54423523.41844177 2.23161316.28790283.86631774.6960144 1.62120056 1.21324158 2.24354553.50759887.61128235 1.13238525 1.09576416 1.85740661 1.44026184.72213745.34332275 1.55828858.5173645 2.4853363.5173645.8052826 0 1.59204102-.19299316 2.33859253-.57366943.76565552-.39071656 1.41383362-.88912964 1.92633057-1.48132325.01091004-.01263427.0223999-.02497863.03431702-.03689575zm-3.89645385-10.572937c-.28919983-.42288209-.66212463-.7789917-1.10812378-1.05786134-.42288208-.26364135-.9152832-.39201355-1.50473022-.39201355-1.20936585 0-2.12348938.45692444-2.7945099 1.3970337l-.00015258.00028991c-.60624695.84835816-.95906067 1.94873047-1.05197144 3.27856445l7.37103272-.35266113c-.01307678-.442276-.09031677-.9152832-.23017883-1.40853882-.15106201-.53100586-.38038636-1.02397155-.68136597-1.46481323z"/>
    <path fill="rgb(30,30,28)" fill-rule="evenodd" d="M154.95908972 60.38631423c-.00028719-.0002872-.00057438-.00043079-.00071797-.00071798-.55542632-.49167004-1.22716477-.9164247-1.99726595-1.26277638-.7333408-.32868947-1.53991517-.63023944-2.39459393-.89545981-1.82236697-.57351932-2.62851054-1.05599927-2.9846267-1.36013395-.4383962-.37377836-.64258861-.80370246-.64258861-1.35295418 0-.61559272.21898271-1.06289184.68925706-1.40752037.53173311-.39000462 1.12650452-.5798375 1.81791552-.5798375.94830285 0 1.74094847.21410047 2.3559668.63569604.57926314.39775877.943995 1.07682057 1.11487332 2.07624332.0028719.01608267.006031.03230893.01005166.048248.05930483.24224514.18753536.4626638.37837341.6520659.23305505.234491.5618881.3548238.97759628.3578393l.9829093.04279137c.19241759.00732336.37636307-.06174595.51407089-.19356636.13785141-.13182041.21568002-.31447354.21568002-.505168 0-.29336503-.00732335-.62133652-.02254445-1.0037306-.01134402-.27828754-.02240085-.5561443-.03331409-.83471902l-.00976448-.24870693c-.0150775-.36516265-.03762194-.72529947-.06720256-1.07251271-.02900623-.33012542-.05901764-.6224853-.08902904-.8687511-.02627792-.21395688-.14976981-.40393336-.33472046-.51493247-.63526526-.38067093-1.47457934-.72285834-2.56604662-1.045804-1.08572348-.32093532-2.25329623-.4836287-3.47012214-.4836287-1.00531016 0-1.93523282.16140102-2.76449522.47989523-.8328523.32036094-1.55140279.76249063-2.13597894 1.31461426-.58773524.55542632-1.05011186 1.21596434-1.37420627 1.9626595-.32624835.74985424-.49152645 1.55815175-.49152645 2.40220447 0 1.82308494.56978584 3.24022619 1.69298767 4.21207865 1.0367575.89804452 2.47098659 1.63052375 4.26664484 2.17805234 1.27526917.38052733 2.2390803.80456403 2.8644375 1.26019167.5136401.37449634.75301334.89043397.75301334 1.62320039 0 .71366825-.23047033 1.25444786-.70447816 1.6530682-.50272687.42303152-1.26981255.63756279-2.27971775.63756279-1.2893415 0-2.29149256-.31188883-2.97873929-.92690716-.6942829-.62119294-1.07969248-1.42905966-1.17848599-2.46983783-.00057438-.00703616-.00143595-.01435952-.00229752-.02153928-.05829966-.46151505-.31619668-.82911882-.72845857-1.03661391-.29968322-.14948263-.65264028-.22515731-1.0488195-.22515731h-.43337038c-.38627115 0-.69930873.31303758-.69930873.69930873 0 .84534508.02211366 1.69600317.0660538 2.52842468.04437092.84477069.09577801 1.64517046.15264172 2.37908564.018093.23276786.15091858.44112452.35439301.55556991.9860684.55470835 2.09993653.95261071 3.31073145 1.18250666 1.17834239.22372136 2.26464025.33716158 3.22888216.33716158 1.26191482 0 2.37204948-.17518617 3.29967462-.52067627.93379973-.34821842 1.72544019-.81863637 2.3532385-1.39818668.63756279-.58874041 1.11932476-1.28718758 1.43236234-2.07638692.30571423-.77297308.46065348-1.58859394.46065348-2.42403095 0-.98922748-.16599608-1.86472755-.49353678-2.6026634-.32825868-.73779225-.78805058-1.37205235-1.36645214-1.88554886"/>
    <path fill="rgb(30,30,28)" fill-rule="evenodd" d="M170.11636957 66.51520243c-.12377908 0-.25990735.02197007-.43064207.07021806-.21137217.06031-.41427222.1891149-.63555246.40335898-.330269.25114804-.68437483.475013-1.05355814.66613824-.32107892.16613967-.66254836.24684018-1.04365008.24684018-.20361802 0-.38325565-.02871904-.5348922-.08558275-.02570355-.00976447-.11947123-.05815606-.24454267-.27699518-.08931622-.1565188-.21496204-.46711526-.30614501-1.05930196-.08070051-.52555851-.12176875-1.24080631-.12176875-2.12549648v-10.0475013h3.46064486c.62363405 0 1.11846319-.32021734 1.35798002-.87880276.16929876-.39517405.25143523-.9317894.25143523-1.64043182 0-.38627115-.31303758-.69945233-.69930873-.69945233h-4.37075138V47.280766c0-.38627114-.31303758-.69945232-.69945233-.69945232h-.77986565c-.6223417 0-1.130238.44887866-1.50947298 1.33399961-.25373275.59175591-.55399036 1.2352061-.8927315 1.91268836-.27268732.54508747-.62004416.99353535-1.03244964 1.33299445-.36530625.30097559-.84362193.44729912-1.46208655.44729912-.51766078 0-.91900943.25200961-1.1002266.68940066-.10784.25789702-.16254979.5381949-.16254979.83328308v.47659254c0 .38627115.31318118.69930873.69930873.69930873h1.90091356v11.26088093c0 1.12621733.11789167 2.02770813.3605676 2.7563103.25071726.75215177.60668981 1.36185708 1.05700443 1.81116653.46381257.46467414 1.02526989.78187599 1.66872008.94284623.57280134.14316444 1.1839426.21568002 1.81633597.21568002 1.10625759 0 2.16039012-.29580615 3.13324775-.87952073.92231211-.55341599 1.79307354-1.2834541 2.5874423-2.16958022.19701265-.2195571.2349218-.53934365.09477285-.7991074-.41513378-.76895242-.9406923-.93035345-1.30872685-.93035345"/>
    <path fill="rgb(30,30,28)" fill-rule="evenodd" d="M187.39328003 65.54988098c.42001343-.42002869.85308838-.50804138 1.14257812-.50804138.56576539 0 1.0498352.37306213 1.43884278 1.10897827.1244812.23535156.1045227.52082825-.05126953.73651123-.3963318.54838562-.85800171 1.08729553-1.37249756 1.60179138-.53186035.53173828-1.17144776 1.01393128-1.90090943 1.43336487-.73046875.41944885-1.56704712.75617981-2.48706054 1.00115967-.92160034.24568176-1.98822022.37017822-3.17001343.37017822-1.2300415 0-2.41784668-.20347595-3.53057861-.6046753-1.1303711-.40780639-2.14128113-1.04450988-3.00457764-1.89244079-.85812378-.84204101-1.55227661-1.89703369-2.06303406-3.1356964-.5094757-1.23434449-.767807-2.69454957-.767807-4.33987428 0-1.56677246.30528259-3.03445434.90737915-4.36227417.5966339-1.31491088 1.381958-2.4571991 2.3347168-3.39472961.94859313-.93367004 2.01519775-1.67274475 3.16986083-2.19673157 1.17059326-.5302887 2.32479859-.79910278 3.43078613-.79910278 2.89874268 0 5.05914307.87693787 6.42129517 2.60668945 1.32150269 1.67948914 1.99151611 3.88079834 1.99151611 6.54277039 0 .5493927-.39416503.95002746-.9401245.95907593l-11.82275391.53201294c.04980468.7960968.18981933 1.54437255.41827392 2.23161316.28805542.8665924.69644165 1.62133789 1.2135315 2.24353027.50732421.61128235 1.13223266 1.09577942 1.85726928 1.44039917.72198487.34320068 1.55813599.51737976 2.48519898.51737976.80541992 0 1.59216308-.19299316 2.33843994-.57365418.76593018-.39086914 1.41427612-.88929748 1.92660522-1.4813385.01107788-.01263427.0225525-.02497863.03433228-.03689575zm-3.2151184-9.10797119c-.1511841-.53115845-.3803711-1.02426147-.68136598-1.46495056-.28918457-.42289734-.66195678-.77900696-1.10812377-1.05786133-.4227295-.26364136-.9152527-.39216614-1.50473023-.39216614-1.20935059 0-2.12332153.45706177-2.79464722 1.3974762-.6062622.84835815-.95892334 1.94873047-1.05197143 3.27856445l7.37103271-.35267639c-.01306152-.442276-.09033203-.91526794-.23019409-1.40838623z"/>
    <path fill="rgb(30,30,28)" fill-rule="evenodd" d="M218.69321168 66.51520243c-.12377908 0-.25990735.02197007-.43064207.07021806-.21137217.06031-.41427222.1891149-.63555246.40335898-.330269.25114804-.68437483.475013-1.05355814.66613824-.32107892.16613967-.66254836.24684018-1.04365008.24684018-.20361802 0-.38325565-.02871904-.5348922-.08558275-.02570355-.00976447-.11947123-.05815606-.24454266-.27699518-.08931623-.1565188-.21496205-.46711526-.30614502-1.05930196-.08070051-.52555851-.12176875-1.24080631-.12176875-2.12549648v-10.0475013h3.46064486c.62363405 0 1.11846319-.32021734 1.35798002-.87880276.16929876-.39517405.25143523-.9317894.25143523-1.64043182 0-.38627115-.31303758-.69945233-.69930873-.69945233h-4.37075138V47.280766c0-.38627114-.31303758-.69945232-.69945232-.69945232h-.77986566c-.62234169 0-1.130238.44887866-1.50947297 1.33399961-.25373276.59175591-.55399037 1.2352061-.8927315 1.91268836-.27268733.54508747-.62004417.99353535-1.03244965 1.33299445-.36530624.30097559-.84362193.44729912-1.46208655.44729912-.20175129 0-.38512239.03948868-.54537466.11214787-.07940815-.10137823-.16398574-.2011769-.26033813-.2976729-.53905647-.53833849-1.33213288-.8111694-2.35740277-.8111694-1.32897378 0-2.53847634.38713271-3.5947628 1.1509157-.56260608.40680526-1.12636092.8743513-1.6860951 1.3976123v-1.19902011c0-.81978512-.51536325-1.3495079-1.3134655-1.3495079-.30284232 0-.70218063.06950009-1.25645819.21898271-.46165864.12464066-1.00459217.24325031-1.6137231.35266987-.40967718.0539918-.95060038.10267058-1.60855369.14474398-.66197397.042217-1.17906037.06375628-1.53718685.06375628-.32036094 0-.59979724.21769036-.67805664.52828683-.07265918.2881956-.10784001.54250275-.10784001.77756813 0 .66470228.44327845 1.14560268 1.1568031 1.25473505.0093337.00129235.01866739.00258471.02800108.00373347.4658229.05198147.84520147.12808694 1.12564294.22515731.19299198.06748976.32983823.16082665.41728772.28446214.11286584.16010867.19744343.39402529.25114804.6941393.06476145.36530625.09778835.83443184.09778835 1.3945968v11.00671739c0 .06519223 0 .20074612-.35037234.36085479-.44859148.20548476-.98132975.36243434-1.58313733.46682807-.01105683.00201033-.02225726.00402066-.03331409.00660538-.57768358.1292357-.93652804.59003277-.93652804 1.20246639 0 .2251573.03273971.49741385.10051666.83199072.06993087.34635167.38957383.58558131.7393718.55858541.72285834-.05600214 1.52024261-.10669125 2.37018273-.1504878.82595972-.04250418 1.63669835-.06418706 2.40967143-.06418706.47845928 0 .98707356.00732336 1.51291926.02168288.54436949.01378514 1.07840012.03546802 1.58830676.06404347.51924032.02843186 1.027711.05040192 1.51263207.06576661.46022269.01378514.84663743.03460645 1.14861818.06232033.02168288.00201033.04307857.0030155.06447426.0030155.330269 0 .61961338-.23319864.6852364-.56274968.06748975-.33802315.10008587-.60956172.10008587-.82998038 0-.61990058-.38095813-1.08170281-.99410973-1.20562549-.01392873-.0027283-.02785747-.00516943-.04164261-.00717976-1.17001387-.16312417-2.06705323-.3846916-2.66670688-.65852769-.51622482-.23549616-.58759164-.51019382-.58759164-.77196791v-7.4535972c0-.60324354.07294637-1.1935635.21668519-1.755308.14057972-.55097487.3397463-1.04106537.59233029-1.4576351.2342038-.38684554.51493246-.69313414.83443183-.91010653.2886264-.19572028.59965365-.29092392.95060038-.29092392.29925244 0 .56576517.07739783.81404131.23607055.29796009.19112524.55643149.41915445.76809085.67762585.2014641.24597862.5437951.324956.8322779.19284839.70246783-.3216533 1.2656483-.59965365 1.67374591-.82624691.4211648-.23406021.74310528-.43380117.9830529-.6101361.19887938-.14546196.3545366-.2943702.47127952-.45031462h1.64488327v11.26088093c0 1.12621733.11789168 2.02770813.3605676 2.7563103.25071726.75215177.60668982 1.36185708 1.05700443 1.81116653.46381257.46467414 1.02526989.78187599 1.66872008.94284623.57280134.14316444 1.1839426.21568002 1.81633597.21568002 1.10625759 0 2.16039012-.29580615 3.13324775-.87952073.92231211-.55341599 1.79307354-1.2834541 2.5874423-2.16958022.19701265-.2195571.2349218-.53934365.09477286-.7991074-.4151338-.76895242-.9406923-.93035345-1.30872686-.93035345"/>
    <path fill="rgb(30,30,28)" fill-rule="evenodd" d="M237.9249878 53.45533752l.00042724.00042725c.91830444.90379334 1.64245605 2.01234436 2.15264892 3.29507446.50732422 1.27656556.76449585 2.68293763.76449585 4.1802063 0 1.44628906-.27426147 2.81518555-.8154602 4.0689087-.53894043 1.24684142-1.28115845 2.34764098-2.20620728 3.2723999-.92590332.92617797-2.02685546 1.66828918-3.27209472 2.2059021-1.25375366.54121398-2.62265015.81547546-4.06906128.81547546-1.4992981 0-2.89935303-.25759888-4.16125488-.76550293-1.26593018-.50933838-2.3711853-1.22328186-3.28430176-2.12190247-.91699219-.9007721-1.64102173-2.00143432-2.15164185-3.27081298-.50790405-1.2616272-.76550293-2.67633057-.76550293-4.20446778 0-1.4177246.27410889-2.77842712.81448364-4.04464721.53775025-1.26062012 1.28027344-2.36975098 2.20690918-3.29666138.92489624-.92475891 2.0256958-1.66699219 3.27224732-2.20576477 1.2539978-.54135132 2.62289429-.81576538 4.06906128-.81576538 1.4982605 0 2.89831543.25746154 4.1611023.76550293 1.26419067.50875854 2.36917114 1.22257995 3.28414916 2.1216278zm-3.76950074 13.36972046c.80615234-1.0235443 1.2151184-2.37965393 1.2151184-4.03057861 0-1.0211029-.1054077-2.1082611-.31347655-3.23103333-.20391846-1.10079956-.5333252-2.11860656-.97976685-3.02511596-.43048096-.87364197-.99667358-1.6059723-1.68292236-2.17619324-.64215088-.5327301-1.424469-.79177856-2.39129639-.79177856-1.3345642 0-2.37564087.44068908-3.1826477 1.34735107-.81689454.91772461-1.23132325 2.4597931-1.23132325 4.58328247 0 1.01937866.11184693 2.08010864.3322754 3.152771.21655273 1.05656433.55169677 2.0223999.99627685 2.87132263.42904663.81907654.9857788 1.50158691 1.65478516 2.02842712.62994384.49684143 1.38122558.73823548 2.2972412.73823548 1.43392945 0 2.50860596-.47976685 3.2857361-1.46669007z"/>
    <path fill="rgb(30,30,28)" fill-rule="evenodd" d="M257.35341082 53.99675762c.09046499-.22702405.13627186-.47458221.13627186-.73578192 0-.68021057-.27297451-1.2985316-.81188738-1.83801884-.53891287-.53848209-1.33198929-.81131301-2.35740277-.81131301-1.32911738 0-2.53861993.38713272-3.59490639 1.15077211-.56260608.40680527-1.12621733.87420771-1.6859515 1.3977559v-1.1991637c0-.81978513-.51550685-1.34936431-1.3136091-1.34936431-.30255513 0-.70203704.06950009-1.2564582.21898271-.46208942.12464066-1.00487936.24325031-1.6138667.35252627-.40938997.0541354-.95031318.10281418-1.60826649.14488758-.66211757.042217-1.17920396.06361269-1.53718685.06361269-.32050454 0-.59994084.21783395-.67820023.52843041-.07265919.28819562-.10784002.54235916-.10784002.77756813 0 .66470229.44327845 1.1454591 1.1570903 1.25459146.0091901.00143595.01852379.00272831.02785748.00387707.4656793.05198147.84505788.12794335 1.12564295.22515731.19299197.06748976.32983822.16068305.41728771.28446214.11286585.16010867.19744343.39402529.25114804.6941393.06476145.36487546.09764476.83400105.09764476 1.3945968V67.5611931c0 .06519223 0 .20060253-.35037235.3608548-.44844788.20534117-.98104256.36243434-1.58299373.46682807-.01105683.00186673-.02225726.00402066-.03331409.00646178-.57782717.1293793-.93667163.59017636-.93667163 1.2024664 0 .2253009.0327397.49741384.10051665.83199071.06993088.34649527.39043541.58572491.7395154.55872901.72242756-.05614573 1.51995542-.10669125 2.37003914-.1504878.82610331-.04264777 1.63684194-.06418706 2.40967143-.06418706.47860287 0 .98721715.00732336 1.51306285.02153929.5443695.01392873 1.07854372.03546802 1.58830676.06418706.51909673.02843185 1.0275674.05040192 1.51277566.06576661.4600791.01364155.84649384.03460645 1.14861819.06232033.02153928.00201033.04293497.0030155.06433066.0030155.330269 0 .61961338-.23319864.6852364-.56274968.06748975-.33816675.10022946-.60956172.10022946-.83012398 0-.61975698-.38110172-1.0817028-.99425332-1.20548189-.01392873-.0028719-.02785747-.00516943-.04164261-.00717976-1.17015747-.16326777-2.06719682-.3848352-2.66670687-.65867129-.51636842-.23549616-.58759165-.51005022-.58759165-.77196791v-7.4534536c0-.60281275.07280277-1.1934199.21668519-1.7554516.14057972-.55083127.33988989-1.04106536.59233029-1.4576351.23406021-.38670194.51478887-.69299055.83428824-.90996293.2886264-.19572028.59965365-.29092392.95074397-.29092392.29925244 0 .56576517.07739783.81404131.23592695.29796009.19112524.55643149.41915446.76823444.67776945.2014641.24597862.54322073.32495599.83227791.19284839.70246783-.3217969 1.2655047-.59979725 1.67331513-.82624691.4205904-.23348583.74267449-.43351398.98362727-.6102797.32653553-.23908604.53833849-.48721859.64833243-.7603367"/>
    <path fill="rgb(30,30,28)" fill-rule="evenodd" d="M272.42111206 65.5497284c.42016602-.4198761.8531189-.5078888 1.14245606-.5078888.56576538 0 1.0498352.37306213 1.43881225 1.10897827.12451172.23535156.10455322.52082825-.05126953.73651123-.39645386.54852295-.85824585 1.08743286-1.3727417 1.60179138-.53146362.53160096-1.1710205 1.01393128-1.90063476 1.43336487-.73077393.41958618-1.56750489.75631714-2.48721314 1.001297-.92160034.24554443-1.98822021.3700409-3.16986084.3700409-1.2300415 0-2.4178772-.20347596-3.5307312-.6046753-1.13024902-.40766907-2.1411438-1.04450989-3.00442505-1.8924408-.85842895-.84217834-1.55255127-1.8973236-2.06304932-3.1356964-.50961303-1.23448182-.76794433-2.69483949-.76794433-4.33987428 0-1.56677246.30529785-3.03445434.90737915-4.36227417.59677124-1.31504821 1.38223266-2.4571991 2.33486938-3.39472961.9484253-.93367004 2.01504517-1.67274475 3.16986084-2.19673157 1.17059326-.5302887 2.32479859-.79910278 3.43075562-.79910278 2.8986206 0 5.059021.87693787 6.4211731 2.60653687 1.32162475 1.67964172 1.9916687 3.88095092 1.9916687 6.54292297 0 .5493927-.39404297.95002746-.94012452.95907593l-11.8229065.53201294c.04995728.79594421.18997193 1.54421997.41827394 2.23176574.28805542.86643982.69644165 1.6211853 1.21353149 2.24337769.50759888.61143494 1.13238525 1.09591675 1.85726929 1.44039917.72198486.34320068 1.55813598.51737976 2.48519897.51737976.80557251 0 1.59231567-.19299316 2.33859253-.57365418.76577759-.39086914 1.41397095-.8891449 1.92660522-1.4813385.0109253-.0127716.0223999-.02513122.03445435-.03704834zm-3.21536255-9.10766602c-.15106201-.53131104-.3802185-1.02426148-.68121338-1.46496582-.28933716-.42303467-.66210937-.77914429-1.10812378-1.05799866-.42288208-.26364136-.91540527-.39216614-1.5048828-.39216614-1.209198 0-2.12319947.45706177-2.79449464 1.3974762-.6064148.84820557-.95907593 1.94873047-1.05212402 3.27856445l7.3711853-.35281372c-.01309204-.442276-.09033203-.9152832-.23034668-1.40809631z"/>
    <path fill="rgb(30,30,28)" fill-rule="evenodd" d="M299.06361556 68.39539519c-.0091901-.00215393-.01866738-.00402067-.02800107-.00574381-.58127346-.1051117-1.11602207-.258615-1.58931192-.45577124-.34951077-.14560555-.34951077-.26981542-.34951077-.32940744V57.07434786c0-1.98233204-.49985497-3.57150037-1.48577977-4.72342124-1.01335148-1.18293744-2.5213885-1.78259109-4.48203767-1.78259109-1.48635415 0-2.87290962.4180057-4.1208957 1.24252946-.7754142.51220416-1.57710632 1.1690087-2.3953119 1.96151074.01177481-.10468092.02484198-.20361803.0393451-.29666773.09132656-.5953458.1378514-1.11946836.1378514-1.55800817 0-.81978512-.51521965-1.3493643-1.31274751-1.3493643-.2978165 0-.71338107.06835133-1.30714731.21539283-.51134259.1262202-1.09476998.24583502-1.7340559.35554177-.4089592.054279-.95117476.10324497-1.61156919.14546196-.66211757.042217-1.17920396.06361269-1.53718685.06361269-.32050454 0-.59994084.21783395-.67820024.52843042-.07265918.2881956-.10784.52828682-.10784.73420237 0 .69155459.44327844 1.18868125 1.1570903 1.29795721.01522109.00244112.03058578.00430786.04595046.00545662 1.13124317.09707037 1.4246082.35855727 1.48692853.4356679.11214787.13871299.29997042.50847069.29997042 1.42417742v11.78687023c0 .09046499 0 .22716764-.34951077.3727732-.47285907.19701264-1.00746408.35037234-1.58916833.45591482-.00933369.00172315-.01866737.00344629-.02785747.00560022-.57782717.1292357-.93667163.59003277-.93667163 1.20246639 0 .2253009.0327397.49741385.10037306.83199072.06648458.32825868.35511098.56073934.6849492.56073934.01881098 0 .03776555-.00086157.05686371-.00229752.69227257-.05585854 1.43150078-.10654766 2.19686331-.1504878.7364999-.04236059 1.53129945-.06404346 2.36185422-.06404346.79996898 0 1.56461354.02168287 2.27253799.06404346.74382325.04437093 1.4847746.09520364 2.20203273.15077499.35266986.02771388.67073328-.2135261.73980258-.56073935.06748976-.33802315.10022947-.60956171.10022947-.82998038 0-.61243362-.35884446-1.0732307-.93681523-1.2024664-.00531302-.00129235-.01076964-.00244111-.01608267-.00330268-.5257021-.10482451-1.02570067-.25789702-1.48621055-.45534045-.33443327-.14330803-.33443327-.26622554-.33443327-.33227935v-7.88682399c0-.79063529.1382822-1.49511345.41082593-2.09304396.27484126-.60223836.64589131-1.1150169 1.10252412-1.52411969.46165864-.41341064 1.00042791-.73161765 1.60079954-.94543094.61229002-.21769036 1.24453979-.32797149 1.87879989-.32797149.53072794 0 .9556262.09147016 1.2619148.27139497.30887333.18207875.54853376.43480634.73291002.7725423.20290005.37191163.34362337.82452377.4178621 1.34491285.0812749.57208337.12248673 1.20964615.12248673 1.89516975v8.4933702c0 .07265919 0 .19414074-.31921218.33500766-.44299126.1952895-.94614892.34706965-1.49525705.45131978-.00746696.00143595-.01479031.0028719-.02225726.00459505-.57782718.1292357-.93652804.59003277-.93652804 1.20246639 0 .2253009.0328833.49741385.10051665.83199072.07007447.34635167.39043541.58558131.7395154.558729.72013004-.05585853 1.48061033-.10669124 2.2603324-.15077498.74927986-.04236059 1.51607835-.06404346 2.27899976-.06404346.81877996 0 1.59204023.02168287 2.29795435.06404346.74037696.04422733 1.48003595.09506004 2.19801206.15077499.3515211.02771388.6705897-.2135261.73980259-.56073935.06748975-.33802315.10008587-.60956171.10008587-.82998038 0-.61243362-.35870087-1.0732307-.93638444-1.2024664"/>
    <path fill="rgb(223,156,0)" fill-rule="evenodd" d="M91.45245131 26.48645466h1.60237909v4.790911h.12952289c.35611615-.69586245 1.23003667-1.31102438 2.44399068-1.31102438 1.90981646 0 3.13999673 1.42432101 3.13999673 3.2370671v5.42229919h-1.60237909v-5.14702715c0-1.19772775-.90637304-2.00703042-1.99080416-2.00703042-1.14919256 0-2.12032705.87406411-2.12032705 2.07179186v5.0822657h-1.60237909v-12.1392529z"/>
    <path fill="rgb(223,156,0)" fill-rule="evenodd" d="M101.1796204 35.59892131v-5.4221556h1.60237908v5.14702716c0 1.19772775.87406412 1.99080416 1.94226897 1.99080416 1.1815015 0 2.1041008-.90637304 2.1041008-2.13655331v-5.001278h1.60237908v8.44885569h-1.60237908v-1.10051379h-.1293793c-.35611615.71208871-1.19787134 1.31088079-2.42790802 1.31088079-1.90981645 0-3.09146154-1.42417742-3.09146154-3.2370671"/>
    <path fill="rgb(223,156,0)" fill-rule="evenodd" d="M112.8651886 26.6321106c-.61502075 0-1.06820679.46940612-1.06820679 1.05212402 0 .61502075.45318604 1.08442688 1.06820679 1.08442688.63124084 0 1.08442688-.46940613 1.08442688-1.08442688 0-.5827179-.45318604-1.05212402-1.08442688-1.05212402zm-2.34692383 4.93666076h1.53761292v7.056839h1.60238647V30.1767578h-3.13999939v1.39201355z"/>
    <path fill="rgb(223,156,0)" fill-rule="evenodd" d="M116.03724573 36.24636345l1.48908245-.33988989c.14560556 1.003587.8416116 1.50530872 1.92604272 1.50530872s1.66714053-.46941279 1.66714053-1.18164509c0-2.03933935-4.80699366-.420734-4.80699366-3.80355025 0-1.44054727 1.24611934-2.46021694 3.09131795-2.46021694 1.53761764 0 2.88109454.82552893 3.13999672 2.34692031l-1.40809475.40465134c-.14574915-.85783786-.82552893-1.32725064-1.78043716-1.32725064-.9225993 0-1.50516512.43710386-1.50516512 1.0521222 0 1.845055 4.88798137.210367 4.88798137 3.65780109 0 1.6348316-1.32725064 2.73548899-3.35036373 2.73548899-1.86142487 0-3.14014032-.95505183-3.35050732-2.58973984"/>
    <path fill="rgb(223,156,0)" fill-rule="evenodd" d="M128.32192993 29.96640015c-2.33084106 0-3.9655304 1.8935852-3.9655304 4.4347992 0 2.57350158 1.71568299 4.43478393 4.06259156 4.43478393 1.68336487 0 2.39546204-.97113037 2.68681335-1.3757782h.11329651c0 .72845459.53417969 1.16542053 1.23017884 1.16542053h1.14920043v-1.45663452h-.38858032c-.25889587 0-.42073059-.1295166-.42073059-.38842774v-6.60379028h-1.60237121v1.21394348h-.12953186c-.32380677-.45318603-1.10064698-1.4243164-2.7353363-1.4243164zm.27513123 1.4890747c1.4405365 0 2.63827514 1.08442688 2.63827514 2.96194458 0 1.60237122-1.01982116 2.94570923-2.62205505 2.94570923-1.4730072 0-2.63827515-1.16542053-2.63827515-2.94570923 0-1.73190307 1.11688233-2.96194458 2.62205506-2.96194458z"/>
    <path fill="rgb(223,156,0)" fill-rule="evenodd" d="M135.7344752 30.1768088h1.58615283v1.32725064h.11329663c.2913547-.7122323 1.11688364-1.53761764 2.2660762-1.53761764h.59879208v1.60223549h-.80930267c-1.45662994 0-2.15263598 1.11688364-2.15263598 2.71926272v4.33772448h-1.60237909v-8.4488557z"/>
    <path fill="rgb(223,156,0)" fill-rule="evenodd" d="M143.2765127 36.14926436v-4.580544h-1.53761764v-1.39186848h1.63468801v-2.41168176h1.50530872v2.41168176h2.49266946v1.39186849h-2.49266946v4.56431773c0 .76076749.30758097 1.08443112 1.0521222 1.08443112h1.3433333v1.40823835h-1.35955957c-1.58615282 0-2.63827502-.72845857-2.63827502-2.4764432"/>
    <path fill="rgb(223,156,0)" fill-rule="evenodd" d="M148.98989377 36.24636345l1.48908245-.33988989c.14560556 1.003587.8416116 1.50530872 1.92604272 1.50530872s1.66728413-.46941279 1.66728413-1.18164509c0-2.03933935-4.80713726-.420734-4.80713726-3.80355025 0-1.44054727 1.24626293-2.46021694 3.09131795-2.46021694 1.53761764 0 2.88095094.82552893 3.13999672 2.34692031l-1.40809475.40465134c-.14574915-.85783786-.82552893-1.32725064-1.78043716-1.32725064-.9225993 0-1.50516512.43710386-1.50516512 1.0521222 0 1.845055 4.88798137.210367 4.88798137 3.65780109 0 1.6348316-1.32725064 2.73548899-3.35050733 2.73548899-1.86128127 0-3.13999672-.95505183-3.35036372-2.58973984"/>
    <path fill="rgb(223,156,0)" fill-rule="evenodd" d="M161.46850586 29.96636963c-2.26593018 0-4.15951538 1.78044128-4.15951538 4.45101929 0 2.58973693 1.66699219 4.41871643 4.24066162 4.41871643 1.84518433 0 3.31790161-.98736573 3.83599853-2.6545105l-1.50546264-.37219238c-.29119873 1.05198669-1.27856445 1.63468933-2.33053589 1.63468933-1.57008362 0-2.57366943-.97113037-2.5897522-2.62205506h6.58758545v-.50172424c0-2.52496338-1.50546264-4.35394287-4.0789795-4.35394287zm.00001526 1.40809631c1.27885437 0 2.3632965.79307556 2.44413757 2.23362732h-4.93666077c.11329651-1.2947998 1.19787598-2.23362732 2.4925232-2.23362732z"/>
    <path fill="rgb(223,156,0)" fill-rule="evenodd" d="M167.60293624 30.1768088h1.60223549v1.10065738h.12966648c.35597256-.7122323 1.19758416-1.31102438 2.42776442-1.31102438 1.90996006 0 3.09146155 1.424321 3.09146155 3.2370671v5.42215559h-1.60237909v-5.14702715c0-1.19772775-.87406412-2.00703042-1.94226898-2.00703042-1.18164508 0-2.10424438.9225993-2.10424438 2.15263597v5.0014216h-1.6022355v-8.4488557z"/>
    <path fill="rgb(223,156,0)" fill-rule="evenodd" d="M178.48519897 30.1768341h-1.57006835v12.17155457h1.60223388v-4.93666076h.1296692c.30743407.51794433 1.11672973 1.4243164 2.75143432 1.4243164 2.31460571 0 3.96551513-1.87750244 3.96551513-4.45101929 0-2.55728149-1.74813842-4.41856384-4.0788269-4.41856384-1.65090942 0-2.39544678 1.00344849-2.67056274 1.37564087h-.12939454v-1.16526794zm2.58959961 1.27856446c1.48907471 0 2.63827515 1.14918518 2.63827515 2.92962646 0 1.74798584-1.10064697 2.96194458-2.60583496 2.96194458-1.44067383 0-2.6220398-1.08442688-2.6220398-2.96194458 0-1.58615112 1.0034485-2.92962646 2.58959961-2.92962646z"/>
    <path fill="rgb(223,156,0)" fill-rule="evenodd" d="M187.4192205 30.1768088h1.58615283v1.32725064h.11329663c.29121111-.7122323 1.11674005-1.53761764 2.26593261-1.53761764h.59893567v1.60223549h-.80944626c-1.45662994 0-2.15263598 1.11688364-2.15263598 2.71926272v4.33772448h-1.6022355v-8.4488557z"/>
    <path fill="rgb(223,156,0)" fill-rule="evenodd" d="M196.93591309 29.96640015c-2.330719 0-3.96539307 1.8935852-3.96539307 4.4347992 0 2.57350158 1.71566772 4.43478393 4.06259155 4.43478393 1.68322754 0 2.3953247-.97113037 2.68682862-1.3757782h.11328125c0 .72845459.5340271 1.16542053 1.2300415 1.16542053h1.14920044v-1.45663452h-.38842774c-.25906372 0-.42089843-.1295166-.42089843-.38842774v-6.60379028h-1.60235596v1.21394348h-.12939453c-.3237915-.45318603-1.10064697-1.4243164-2.73547363-1.4243164zm.27526855 1.4890747c1.44039917 0 2.63812256 1.08442688 2.63812256 2.96194458 0 1.60237122-1.01965332 2.94570923-2.6220398 2.94570923-1.47286987 0-2.63827514-1.16542053-2.63827514-2.94570923 0-1.73190307 1.11688232-2.96194458 2.62219238-2.96194458z"/>
    <path fill="rgb(223,156,0)" fill-rule="evenodd" d="M204.34858027 26.48645466h1.6022355v6.83025035h1.23018026l2.23362369-3.13985313h1.87750753l-2.71911913 3.7387888v.12952289l2.8971772 4.580544h-1.90996005l-2.33069405-3.85222903h-1.27871546v3.85222903h-1.60223549v-12.1392529z"/>
    <path fill="rgb(223,156,0)" fill-rule="evenodd" d="M214.05949437 36.14926436v-4.580544h-1.53761764v-1.39186848h1.63468801v-2.41168176h1.50516512v2.41168176h2.49266947v1.39186849h-2.49266947v4.56431773c0 .76076749.30758097 1.08443112 1.0521222 1.08443112h1.3434769v1.40823835h-1.35970316c-1.58615283 0-2.63813143-.72845857-2.63813143-2.4764432"/>
    <path fill="rgb(223,156,0)" fill-rule="evenodd" d="M222.15194702 26.6321106c-.61502075 0-1.06820679.46940612-1.06820679 1.05212402 0 .61502075.45318604 1.08442688 1.0682068 1.08442688.63137817 0 1.08444213-.46940613 1.08444213-1.08442688 0-.5827179-.45306396-1.05212402-1.08444214-1.05212402zm-2.34677124 4.93666076h1.53762818v7.056839h1.60235595V30.1767578h-3.13998413v1.39201355z"/>
    <path fill="rgb(223,156,0)" fill-rule="evenodd" d="M227.88146973 26.6321106c-.61502076 0-1.0682068.46940612-1.0682068 1.05212402 0 .61502075.45318604 1.08442688 1.0682068 1.08442688.6312561 0 1.08444214-.46940613 1.08444214-1.08442688 0-.5827179-.45318604-1.05212402-1.08444214-1.05212402zm-1.84506226 14.27566528h-1.40823364v1.44055176h1.40823364c1.58615112 0 2.63812256-.72831726 2.63812256-2.4764557v-9.69511413h-3.36642456v1.39201355h1.76419067v8.28701782c0 .74455262-.30755615 1.0519867-1.03588867 1.0519867z"/>
    <path fill="rgb(223,156,0)" fill-rule="evenodd" d="M231.5068739 26.48645466h1.6022355v6.83025035h1.23018026l2.23362369-3.13985313h1.87750753l-2.71911913 3.7387888v.12952289l2.8971772 4.580544h-1.90996005l-2.33069405-3.85222903h-1.27871546v3.85222903h-1.60223549v-12.1392529z"/>
    <g>
      <use fill="none" xlink:href="#path-29"/>
      <g mask="url(#mask-30)">
        <path fill="rgb(223,156,0)" fill-rule="evenodd" d="M72.66909055 49.32326444c0 20.06700153-16.26761554 36.33461707-36.33461707 36.33461707S0 69.39026597 0 49.32326444s16.26747195-36.33461708 36.33447348-36.33461708 36.33461707 16.26761555 36.33461707 36.33461708"/>
      </g>
    </g>
    <path fill="rgb(30,30,28)" fill-rule="evenodd" d="M48.5687561 83.5405426c-3.82365417 1.36730957-7.94067382 2.11717224-12.23431396 2.11717224-4.29349518 0-8.4106598-.74986267-12.234169-2.11717224v-3.03675842c0-1.69067383-.83902741-2.01333618-1.57021333-2.10510254-.48262023-.06088257-.90579986-.30671692-1.1915512-.69241333-.10812378-.14602661-.26148987-.3123169-.45533753-.49511719-.19615173-.1850891-.25847626-.46568298-.15896606-.71566772.09951782-.25073242.33817291-.41256714.60798645-.41256714h2.76808166v-2.56130981h-.4485855c-.44758607 0-.81160737-.36386109-.81160737-.81144715v-.5364685c0-.44758606.3640213-.8114624.81160736-.8114624H25.169487v-1.76348878c0-.44758606.36386871-.8114624.81145477-.8114624h1.39588928V46.9992981l-.7923584-.43840027c-.24253082-.10984803-.3589859-.44198609-.4523239-.70864868-.01177216-.0327301-.02140046-.0623169-.030159-.0847168-.57265473-.13023377-1.30010987-.52168274-1.30010987-1.37420654 0-.34204102.12392426-.63957215.3584137-.86013794.50545502-.4763031 1.35353088-.43940735 1.4493103-.43309021l.85539246-.00042725c.123497-.83773804.73334503-1.90090942 3.03201294-1.90090942 1.11430359 0 2.07021332-.98736573 2.5410614-1.57580567.49368286-.61761474.63598633-.92059326-.81848908-2.24827575-1.00128936-.91441346-.86243438-2.0702057-.34879303-2.94944764-1.66828918-1.34649658-2.65421295-3.3924408-2.65421295-5.54292297 0-3.40003967 2.45519257-6.34805298 5.7623291-6.98805237v-1.86228943c-.9449997-.49928283-1.54264068-1.47960663-1.54264068-2.56274414 0-1.30671692.86386871-2.43049621 2.09448242-2.78287506v-3.72486114c-.79049683-.25991059-1.41829681-.89588929-1.66786194-1.6904068h-3.97227478V7.72470856h3.97227478c.24956513-.79451752.87736511-1.43049622 1.66786194-1.6904068V0h1.60754395v6.03430176c.79049682.25991058 1.41828918.89588928 1.66786193 1.6904068h3.97227478v1.54637146h-3.97227478c-.24957275.79451751-.8773651 1.43049621-1.66786193 1.6904068v3.72486114c1.2306137.35237885 2.09448242 1.47615814 2.09448242 2.78287506 0 1.08313751-.597641 2.0634613-1.54264832 2.56274414v1.86228943c3.30714417.6399994 5.76233673 3.5880127 5.76233673 6.98805237 0 2.15048218-.98592376 4.1964264-2.65421295 5.54292297.5134964.87924195.65249634 2.03503418-.34879303 2.94944764-1.4544754 1.3276825-1.31217193 1.630661-.8184967 2.24783325.47084808.58888244 1.42676544 1.57624817 2.5410614 1.57624817 2.29867554 0 2.90852356 1.06317138 3.03201294 1.90048217h.84247589c.1931305-.03460693.89302063-.12635803 1.37966156.26593018.20131683.16212463.440979.4718628.440979 1.02815247 0 .6036682-.24295807.93795776-.4468689 1.1119995-.28690337.24525452-.63339996.30599976-.87204742.3144684-.00359344.01034545-.00732422.02111816-.0113449.03245544-.09333802.2666626-.2097931.59880065-.47789002.72157287l-.7667923.42547608v21.78797912h1.39588928c.44758606 0 .81145478.36387634.81145478.8114624v1.76348877h1.51779937c.44758606 0 .81159973.36387635.81159973.8114624v.53646851c0 .44758606-.36401367.81144715-.81159973.81144715h-.44859314v2.56130981h2.76808167c.26982117 0 .5083313.16183472.60798645.41256714.09951782.24998474.03718567.53057861-.15852356.71524048-.19429016.18322754-.34779358.34951782-.45578003.49554443-.28575134.38569641-.70892334.63153076-1.19154358.69241333-.73118591.09176636-1.57022095.41442871-1.57022095 2.10510254v3.03675842zM32.17865753 52.66455078c0-.8999176.6289444-1.63224792 1.40177918-1.63224792.77268219 0 1.40177154.73233032 1.40177154 1.63224792v16.02651978h-2.80355072V52.66455078zm5.50816345 0c0-.8999176.62908936-1.63224792 1.40177918-1.63224792.77282715 0 1.40177154.73233032 1.40177154 1.63224792v16.02651978h-2.80355072V52.66455078z"/>
  </g>
</svg>
